<svg id="visual" viewBox="0 0 540 960" width="540" height="960" xmlns="http://www.w3.org/2000/svg" xmlns:xlink="http://www.w3.org/1999/xlink" version="1.1"><path d="M0 903L23 903L23 876L47 876L47 887L70 887L70 861L94 861L94 856L117 856L117 866L141 866L141 861L164 861L164 884L188 884L188 894L211 894L211 888L235 888L235 918L258 918L258 912L282 912L282 861L305 861L305 852L329 852L329 869L352 869L352 895L376 895L376 920L399 920L399 878L423 878L423 870L446 870L446 896L470 896L470 905L493 905L493 904L517 904L517 862L540 862L540 898L540 0L540 0L517 0L517 0L493 0L493 0L470 0L470 0L446 0L446 0L423 0L423 0L399 0L399 0L376 0L376 0L352 0L352 0L329 0L329 0L305 0L305 0L282 0L282 0L258 0L258 0L235 0L235 0L211 0L211 0L188 0L188 0L164 0L164 0L141 0L141 0L117 0L117 0L94 0L94 0L70 0L70 0L47 0L47 0L23 0L23 0L0 0Z" fill="#ded1c8"></path><path d="M0 837L23 837L23 791L47 791L47 789L70 789L70 808L94 808L94 788L117 788L117 831L141 831L141 782L164 782L164 832L188 832L188 778L211 778L211 822L235 822L235 812L258 812L258 811L282 811L282 800L305 800L305 844L329 844L329 836L352 836L352 782L376 782L376 784L399 784L399 829L423 829L423 806L446 806L446 842L470 842L470 824L493 824L493 799L517 799L517 780L540 780L540 825L540 0L540 0L517 0L517 0L493 0L493 0L470 0L470 0L446 0L446 0L423 0L423 0L399 0L399 0L376 0L376 0L352 0L352 0L329 0L329 0L305 0L305 0L282 0L282 0L258 0L258 0L235 0L235 0L211 0L211 0L188 0L188 0L164 0L164 0L141 0L141 0L117 0L117 0L94 0L94 0L70 0L70 0L47 0L47 0L23 0L23 0L0 0Z" fill="#e0d4cb"></path><path d="M0 703L23 703L23 772L47 772L47 723L70 723L70 741L94 741L94 728L117 728L117 763L141 763L141 721L164 721L164 738L188 738L188 726L211 726L211 736L235 736L235 732L258 732L258 759L282 759L282 743L305 743L305 726L329 726L329 714L352 714L352 707L376 707L376 718L399 718L399 706L423 706L423 715L446 715L446 755L470 755L470 703L493 703L493 749L517 749L517 724L540 724L540 766L540 0L540 0L517 0L517 0L493 0L493 0L470 0L470 0L446 0L446 0L423 0L423 0L399 0L399 0L376 0L376 0L352 0L352 0L329 0L329 0L305 0L305 0L282 0L282 0L258 0L258 0L235 0L235 0L211 0L211 0L188 0L188 0L164 0L164 0L141 0L141 0L117 0L117 0L94 0L94 0L70 0L70 0L47 0L47 0L23 0L23 0L0 0Z" fill="#e3d7cd"></path><path d="M0 646L23 646L23 665L47 665L47 656L70 656L70 692L94 692L94 691L117 691L117 643L141 643L141 636L164 636L164 665L188 665L188 668L211 668L211 694L235 694L235 664L258 664L258 650L282 650L282 640L305 640L305 670L329 670L329 695L352 695L352 690L376 690L376 659L399 659L399 668L423 668L423 699L446 699L446 667L470 667L470 672L493 672L493 631L517 631L517 677L540 677L540 668L540 0L540 0L517 0L517 0L493 0L493 0L470 0L470 0L446 0L446 0L423 0L423 0L399 0L399 0L376 0L376 0L352 0L352 0L329 0L329 0L305 0L305 0L282 0L282 0L258 0L258 0L235 0L235 0L211 0L211 0L188 0L188 0L164 0L164 0L141 0L141 0L117 0L117 0L94 0L94 0L70 0L70 0L47 0L47 0L23 0L23 0L0 0Z" fill="#e5dad0"></path><path d="M0 613L23 613L23 603L47 603L47 594L70 594L70 622L94 622L94 596L117 596L117 596L141 596L141 606L164 606L164 619L188 619L188 601L211 601L211 578L235 578L235 587L258 587L258 607L282 607L282 571L305 571L305 623L329 623L329 568L352 568L352 561L376 561L376 554L399 554L399 560L423 560L423 571L446 571L446 595L470 595L470 562L493 562L493 584L517 584L517 614L540 614L540 594L540 0L540 0L517 0L517 0L493 0L493 0L470 0L470 0L446 0L446 0L423 0L423 0L399 0L399 0L376 0L376 0L352 0L352 0L329 0L329 0L305 0L305 0L282 0L282 0L258 0L258 0L235 0L235 0L211 0L211 0L188 0L188 0L164 0L164 0L141 0L141 0L117 0L117 0L94 0L94 0L70 0L70 0L47 0L47 0L23 0L23 0L0 0Z" fill="#e7ddd3"></path><path d="M0 525L23 525L23 504L47 504L47 513L70 513L70 501L94 501L94 519L117 519L117 528L141 528L141 525L164 525L164 522L188 522L188 536L211 536L211 536L235 536L235 486L258 486L258 520L282 520L282 512L305 512L305 484L329 484L329 485L352 485L352 539L376 539L376 536L399 536L399 488L423 488L423 495L446 495L446 507L470 507L470 496L493 496L493 505L517 505L517 550L540 550L540 523L540 0L540 0L517 0L517 0L493 0L493 0L470 0L470 0L446 0L446 0L423 0L423 0L399 0L399 0L376 0L376 0L352 0L352 0L329 0L329 0L305 0L305 0L282 0L282 0L258 0L258 0L235 0L235 0L211 0L211 0L188 0L188 0L164 0L164 0L141 0L141 0L117 0L117 0L94 0L94 0L70 0L70 0L47 0L47 0L23 0L23 0L0 0Z" fill="#eae0d6"></path><path d="M0 475L23 475L23 430L47 430L47 461L70 461L70 456L94 456L94 444L117 444L117 434L141 434L141 421L164 421L164 475L188 475L188 468L211 468L211 474L235 474L235 425L258 425L258 458L282 458L282 454L305 454L305 412L329 412L329 423L352 423L352 468L376 468L376 468L399 468L399 421L423 421L423 412L446 412L446 434L470 434L470 469L493 469L493 434L517 434L517 445L540 445L540 461L540 0L540 0L517 0L517 0L493 0L493 0L470 0L470 0L446 0L446 0L423 0L423 0L399 0L399 0L376 0L376 0L352 0L352 0L329 0L329 0L305 0L305 0L282 0L282 0L258 0L258 0L235 0L235 0L211 0L211 0L188 0L188 0L164 0L164 0L141 0L141 0L117 0L117 0L94 0L94 0L70 0L70 0L47 0L47 0L23 0L23 0L0 0Z" fill="#ece3d8"></path><path d="M0 364L23 364L23 379L47 379L47 399L70 399L70 345L94 345L94 405L117 405L117 369L141 369L141 394L164 394L164 361L188 361L188 391L211 391L211 332L235 332L235 395L258 395L258 378L282 378L282 335L305 335L305 335L329 335L329 394L352 394L352 338L376 338L376 367L399 367L399 348L423 348L423 335L446 335L446 363L470 363L470 342L493 342L493 399L517 399L517 336L540 336L540 399L540 0L540 0L517 0L517 0L493 0L493 0L470 0L470 0L446 0L446 0L423 0L423 0L399 0L399 0L376 0L376 0L352 0L352 0L329 0L329 0L305 0L305 0L282 0L282 0L258 0L258 0L235 0L235 0L211 0L211 0L188 0L188 0L164 0L164 0L141 0L141 0L117 0L117 0L94 0L94 0L70 0L70 0L47 0L47 0L23 0L23 0L0 0Z" fill="#eee6db"></path><path d="M0 278L23 278L23 259L47 259L47 293L70 293L70 309L94 309L94 274L117 274L117 298L141 298L141 290L164 290L164 272L188 272L188 319L211 319L211 325L235 325L235 302L258 302L258 304L282 304L282 315L305 315L305 270L329 270L329 293L352 293L352 311L376 311L376 329L399 329L399 290L423 290L423 301L446 301L446 305L470 305L470 288L493 288L493 291L517 291L517 279L540 279L540 300L540 0L540 0L517 0L517 0L493 0L493 0L470 0L470 0L446 0L446 0L423 0L423 0L399 0L399 0L376 0L376 0L352 0L352 0L329 0L329 0L305 0L305 0L282 0L282 0L258 0L258 0L235 0L235 0L211 0L211 0L188 0L188 0L164 0L164 0L141 0L141 0L117 0L117 0L94 0L94 0L70 0L70 0L47 0L47 0L23 0L23 0L0 0Z" fill="#f0e9de"></path><path d="M0 198L23 198L23 206L47 206L47 185L70 185L70 254L94 254L94 240L117 240L117 189L141 189L141 214L164 214L164 254L188 254L188 251L211 251L211 236L235 236L235 189L258 189L258 233L282 233L282 195L305 195L305 239L329 239L329 247L352 247L352 221L376 221L376 191L399 191L399 191L423 191L423 196L446 196L446 210L470 210L470 232L493 232L493 247L517 247L517 196L540 196L540 200L540 0L540 0L517 0L517 0L493 0L493 0L470 0L470 0L446 0L446 0L423 0L423 0L399 0L399 0L376 0L376 0L352 0L352 0L329 0L329 0L305 0L305 0L282 0L282 0L258 0L258 0L235 0L235 0L211 0L211 0L188 0L188 0L164 0L164 0L141 0L141 0L117 0L117 0L94 0L94 0L70 0L70 0L47 0L47 0L23 0L23 0L0 0Z" fill="#f3ece1"></path><path d="M0 143L23 143L23 123L47 123L47 181L70 181L70 116L94 116L94 132L117 132L117 113L141 113L141 122L164 122L164 182L188 182L188 139L211 139L211 161L235 161L235 142L258 142L258 122L282 122L282 122L305 122L305 182L329 182L329 150L352 150L352 122L376 122L376 137L399 137L399 125L423 125L423 129L446 129L446 181L470 181L470 143L493 143L493 139L517 139L517 163L540 163L540 136L540 0L540 0L517 0L517 0L493 0L493 0L470 0L470 0L446 0L446 0L423 0L423 0L399 0L399 0L376 0L376 0L352 0L352 0L329 0L329 0L305 0L305 0L282 0L282 0L258 0L258 0L235 0L235 0L211 0L211 0L188 0L188 0L164 0L164 0L141 0L141 0L117 0L117 0L94 0L94 0L70 0L70 0L47 0L47 0L23 0L23 0L0 0Z" fill="#f5efe4"></path><path d="M0 88L23 88L23 40L47 40L47 64L70 64L70 86L94 86L94 100L117 100L117 97L141 97L141 60L164 60L164 67L188 67L188 98L211 98L211 73L235 73L235 69L258 69L258 108L282 108L282 98L305 98L305 67L329 67L329 90L352 90L352 95L376 95L376 106L399 106L399 85L423 85L423 74L446 74L446 93L470 93L470 44L493 44L493 103L517 103L517 36L540 36L540 55L540 0L540 0L517 0L517 0L493 0L493 0L470 0L470 0L446 0L446 0L423 0L423 0L399 0L399 0L376 0L376 0L352 0L352 0L329 0L329 0L305 0L305 0L282 0L282 0L258 0L258 0L235 0L235 0L211 0L211 0L188 0L188 0L164 0L164 0L141 0L141 0L117 0L117 0L94 0L94 0L70 0L70 0L47 0L47 0L23 0L23 0L0 0Z" fill="#f7f2e7"></path></svg>