<svg id="visual" viewBox="0 0 900 600" width="900" height="600" xmlns="http://www.w3.org/2000/svg" xmlns:xlink="http://www.w3.org/1999/xlink" version="1.1"><path d="M90 0L89.2 4.3C88.3 8.7 86.7 17.3 84 26C81.3 34.7 77.7 43.3 76.8 52C76 60.7 78 69.3 76.8 78C75.7 86.7 71.3 95.3 67.2 104C63 112.7 59 121.3 60.7 130.2C62.3 139 69.7 148 74.2 156.8C78.7 165.7 80.3 174.3 79.7 183C79 191.7 76 200.3 75.3 209C74.7 217.7 76.3 226.3 78.7 235C81 243.7 84 252.3 80.7 261C77.3 269.7 67.7 278.3 65.2 287C62.7 295.7 67.3 304.3 69.3 313C71.3 321.7 70.7 330.3 72.7 339C74.7 347.7 79.3 356.3 82.7 365C86 373.7 88 382.3 83 391C78 399.7 66 408.3 60.5 417C55 425.7 56 434.3 60.3 443.2C64.7 452 72.3 461 75.3 469.8C78.3 478.7 76.7 487.3 72.2 496C67.7 504.7 60.3 513.3 61.5 522C62.7 530.7 72.3 539.3 74.2 548C76 556.7 70 565.3 69.2 574C68.3 582.7 72.7 591.3 74.8 595.7L77 600L0 600L0 595.7C0 591.3 0 582.7 0 574C0 565.3 0 556.7 0 548C0 539.3 0 530.7 0 522C0 513.3 0 504.7 0 496C0 487.3 0 478.7 0 469.8C0 461 0 452 0 443.2C0 434.3 0 425.7 0 417C0 408.3 0 399.7 0 391C0 382.3 0 373.7 0 365C0 356.3 0 347.7 0 339C0 330.3 0 321.7 0 313C0 304.3 0 295.7 0 287C0 278.3 0 269.7 0 261C0 252.3 0 243.7 0 235C0 226.3 0 217.7 0 209C0 200.3 0 191.7 0 183C0 174.3 0 165.7 0 156.8C0 148 0 139 0 130.2C0 121.3 0 112.7 0 104C0 95.3 0 86.7 0 78C0 69.3 0 60.7 0 52C0 43.3 0 34.7 0 26C0 17.3 0 8.7 0 4.3L0 0Z" fill="#0c0a0b"></path><path d="M52 0L55.3 4.3C58.7 8.7 65.3 17.3 65.7 26C66 34.7 60 43.3 57.3 52C54.7 60.7 55.3 69.3 59.8 78C64.3 86.7 72.7 95.3 75.8 104C79 112.7 77 121.3 76.8 130.2C76.7 139 78.3 148 79.3 156.8C80.3 165.7 80.7 174.3 80 183C79.3 191.7 77.7 200.3 77.5 209C77.3 217.7 78.7 226.3 76.5 235C74.3 243.7 68.7 252.3 66.8 261C65 269.7 67 278.3 64.8 287C62.7 295.7 56.3 304.3 58.3 313C60.3 321.7 70.7 330.3 70.2 339C69.7 347.7 58.3 356.3 56 365C53.7 373.7 60.3 382.3 62.3 391C64.3 399.7 61.7 408.3 59.2 417C56.7 425.7 54.3 434.3 52.7 443.2C51 452 50 461 54.5 469.8C59 478.7 69 487.3 70.2 496C71.3 504.7 63.7 513.3 58.8 522C54 530.7 52 539.3 52.7 548C53.3 556.7 56.7 565.3 56.2 574C55.7 582.7 51.3 591.3 49.2 595.7L47 600L0 600L0 595.7C0 591.3 0 582.7 0 574C0 565.3 0 556.7 0 548C0 539.3 0 530.7 0 522C0 513.3 0 504.7 0 496C0 487.3 0 478.7 0 469.8C0 461 0 452 0 443.2C0 434.3 0 425.7 0 417C0 408.3 0 399.7 0 391C0 382.3 0 373.7 0 365C0 356.3 0 347.7 0 339C0 330.3 0 321.7 0 313C0 304.3 0 295.7 0 287C0 278.3 0 269.7 0 261C0 252.3 0 243.7 0 235C0 226.3 0 217.7 0 209C0 200.3 0 191.7 0 183C0 174.3 0 165.7 0 156.8C0 148 0 139 0 130.2C0 121.3 0 112.7 0 104C0 95.3 0 86.7 0 78C0 69.3 0 60.7 0 52C0 43.3 0 34.7 0 26C0 17.3 0 8.7 0 4.3L0 0Z" fill="#292124"></path><path d="M40 0L43 4.3C46 8.7 52 17.3 52.5 26C53 34.7 48 43.3 50.2 52C52.3 60.7 61.7 69.3 64.5 78C67.3 86.7 63.7 95.3 63.2 104C62.7 112.7 65.3 121.3 64.5 130.2C63.7 139 59.3 148 56.8 156.8C54.3 165.7 53.7 174.3 52.8 183C52 191.7 51 200.3 53.5 209C56 217.7 62 226.3 63 235C64 243.7 60 252.3 55.8 261C51.7 269.7 47.3 278.3 49.7 287C52 295.7 61 304.3 62 313C63 321.7 56 330.3 56 339C56 347.7 63 356.3 64.7 365C66.3 373.7 62.7 382.3 58.7 391C54.7 399.7 50.3 408.3 50 417C49.7 425.7 53.3 434.3 56.2 443.2C59 452 61 461 59.2 469.8C57.3 478.7 51.7 487.3 52.7 496C53.7 504.7 61.3 513.3 62.7 522C64 530.7 59 539.3 58.8 548C58.7 556.7 63.3 565.3 62.7 574C62 582.7 56 591.3 53 595.7L50 600L0 600L0 595.7C0 591.3 0 582.7 0 574C0 565.3 0 556.7 0 548C0 539.3 0 530.7 0 522C0 513.3 0 504.7 0 496C0 487.3 0 478.7 0 469.8C0 461 0 452 0 443.2C0 434.3 0 425.7 0 417C0 408.3 0 399.7 0 391C0 382.3 0 373.7 0 365C0 356.3 0 347.7 0 339C0 330.3 0 321.7 0 313C0 304.3 0 295.7 0 287C0 278.3 0 269.7 0 261C0 252.3 0 243.7 0 235C0 226.3 0 217.7 0 209C0 200.3 0 191.7 0 183C0 174.3 0 165.7 0 156.8C0 148 0 139 0 130.2C0 121.3 0 112.7 0 104C0 95.3 0 86.7 0 78C0 69.3 0 60.7 0 52C0 43.3 0 34.7 0 26C0 17.3 0 8.7 0 4.3L0 0Z" fill="#463739"></path><path d="M47 0L47 4.3C47 8.7 47 17.3 48.8 26C50.7 34.7 54.3 43.3 52.3 52C50.3 60.7 42.7 69.3 43.2 78C43.7 86.7 52.3 95.3 52.3 104C52.3 112.7 43.7 121.3 41.7 130.2C39.7 139 44.3 148 44 156.8C43.7 165.7 38.3 174.3 37.2 183C36 191.7 39 200.3 41.8 209C44.7 217.7 47.3 226.3 46.7 235C46 243.7 42 252.3 41.7 261C41.3 269.7 44.7 278.3 47.3 287C50 295.7 52 304.3 50.3 313C48.7 321.7 43.3 330.3 41.3 339C39.3 347.7 40.7 356.3 41.3 365C42 373.7 42 382.3 41 391C40 399.7 38 408.3 37.5 417C37 425.7 38 434.3 41.8 443.2C45.7 452 52.3 461 54.7 469.8C57 478.7 55 487.3 55.3 496C55.7 504.7 58.3 513.3 56.5 522C54.7 530.7 48.3 539.3 46.2 548C44 556.7 46 565.3 49 574C52 582.7 56 591.3 58 595.7L60 600L0 600L0 595.7C0 591.3 0 582.7 0 574C0 565.3 0 556.7 0 548C0 539.3 0 530.7 0 522C0 513.3 0 504.7 0 496C0 487.3 0 478.7 0 469.8C0 461 0 452 0 443.2C0 434.3 0 425.7 0 417C0 408.3 0 399.7 0 391C0 382.3 0 373.7 0 365C0 356.3 0 347.7 0 339C0 330.3 0 321.7 0 313C0 304.3 0 295.7 0 287C0 278.3 0 269.7 0 261C0 252.3 0 243.7 0 235C0 226.3 0 217.7 0 209C0 200.3 0 191.7 0 183C0 174.3 0 165.7 0 156.8C0 148 0 139 0 130.2C0 121.3 0 112.7 0 104C0 95.3 0 86.7 0 78C0 69.3 0 60.7 0 52C0 43.3 0 34.7 0 26C0 17.3 0 8.7 0 4.3L0 0Z" fill="#664e4d"></path><path d="M42 0L41.5 4.3C41 8.7 40 17.3 38.2 26C36.3 34.7 33.7 43.3 35.2 52C36.7 60.7 42.3 69.3 43.8 78C45.3 86.7 42.7 95.3 41.2 104C39.7 112.7 39.3 121.3 41.7 130.2C44 139 49 148 50.8 156.8C52.7 165.7 51.3 174.3 51.3 183C51.3 191.7 52.7 200.3 49.5 209C46.3 217.7 38.7 226.3 37.3 235C36 243.7 41 252.3 40.8 261C40.7 269.7 35.3 278.3 36.7 287C38 295.7 46 304.3 47.3 313C48.7 321.7 43.3 330.3 41.2 339C39 347.7 40 356.3 41.2 365C42.3 373.7 43.7 382.3 42.3 391C41 399.7 37 408.3 34.2 417C31.3 425.7 29.7 434.3 29.7 443.2C29.7 452 31.3 461 33.7 469.8C36 478.7 39 487.3 40.3 496C41.7 504.7 41.3 513.3 40.3 522C39.3 530.7 37.7 539.3 37.5 548C37.3 556.7 38.7 565.3 40.5 574C42.3 582.7 44.7 591.3 45.8 595.7L47 600L0 600L0 595.7C0 591.3 0 582.7 0 574C0 565.3 0 556.7 0 548C0 539.3 0 530.7 0 522C0 513.3 0 504.7 0 496C0 487.3 0 478.7 0 469.8C0 461 0 452 0 443.2C0 434.3 0 425.7 0 417C0 408.3 0 399.7 0 391C0 382.3 0 373.7 0 365C0 356.3 0 347.7 0 339C0 330.3 0 321.7 0 313C0 304.3 0 295.7 0 287C0 278.3 0 269.7 0 261C0 252.3 0 243.7 0 235C0 226.3 0 217.7 0 209C0 200.3 0 191.7 0 183C0 174.3 0 165.7 0 156.8C0 148 0 139 0 130.2C0 121.3 0 112.7 0 104C0 95.3 0 86.7 0 78C0 69.3 0 60.7 0 52C0 43.3 0 34.7 0 26C0 17.3 0 8.7 0 4.3L0 0Z" fill="#866761"></path><path d="M20 0L21 4.3C22 8.7 24 17.3 25.3 26C26.7 34.7 27.3 43.3 29 52C30.7 60.7 33.3 69.3 35.5 78C37.7 86.7 39.3 95.3 37.7 104C36 112.7 31 121.3 27.8 130.2C24.7 139 23.3 148 24.3 156.8C25.3 165.7 28.7 174.3 28.8 183C29 191.7 26 200.3 26.3 209C26.7 217.7 30.3 226.3 32.5 235C34.7 243.7 35.3 252.3 34.2 261C33 269.7 30 278.3 28.3 287C26.7 295.7 26.3 304.3 26.2 313C26 321.7 26 330.3 28 339C30 347.7 34 356.3 35.8 365C37.7 373.7 37.3 382.3 37.2 391C37 399.7 37 408.3 37.7 417C38.3 425.7 39.7 434.3 39 443.2C38.3 452 35.7 461 35.2 469.8C34.7 478.7 36.3 487.3 36.5 496C36.7 504.7 35.3 513.3 32.3 522C29.3 530.7 24.7 539.3 22.7 548C20.7 556.7 21.3 565.3 23.3 574C25.3 582.7 28.7 591.3 30.3 595.7L32 600L0 600L0 595.7C0 591.3 0 582.7 0 574C0 565.3 0 556.7 0 548C0 539.3 0 530.7 0 522C0 513.3 0 504.7 0 496C0 487.3 0 478.7 0 469.8C0 461 0 452 0 443.2C0 434.3 0 425.7 0 417C0 408.3 0 399.7 0 391C0 382.3 0 373.7 0 365C0 356.3 0 347.7 0 339C0 330.3 0 321.7 0 313C0 304.3 0 295.7 0 287C0 278.3 0 269.7 0 261C0 252.3 0 243.7 0 235C0 226.3 0 217.7 0 209C0 200.3 0 191.7 0 183C0 174.3 0 165.7 0 156.8C0 148 0 139 0 130.2C0 121.3 0 112.7 0 104C0 95.3 0 86.7 0 78C0 69.3 0 60.7 0 52C0 43.3 0 34.7 0 26C0 17.3 0 8.7 0 4.3L0 0Z" fill="#a68274"></path><path d="M30 0L30.5 4.3C31 8.7 32 17.3 30.7 26C29.3 34.7 25.7 43.3 24.2 52C22.7 60.7 23.3 69.3 22 78C20.7 86.7 17.3 95.3 16.8 104C16.3 112.7 18.7 121.3 22.3 130.2C26 139 31 148 31 156.8C31 165.7 26 174.3 22.3 183C18.7 191.7 16.3 200.3 17.5 209C18.7 217.7 23.3 226.3 24.7 235C26 243.7 24 252.3 24.5 261C25 269.7 28 278.3 30.2 287C32.3 295.7 33.7 304.3 34 313C34.3 321.7 33.7 330.3 30.5 339C27.3 347.7 21.7 356.3 19.5 365C17.3 373.7 18.7 382.3 21.2 391C23.7 399.7 27.3 408.3 27.3 417C27.3 425.7 23.7 434.3 24 443.2C24.3 452 28.7 461 29.3 469.8C30 478.7 27 487.3 26.3 496C25.7 504.7 27.3 513.3 26.2 522C25 530.7 21 539.3 21.3 548C21.7 556.7 26.3 565.3 27.2 574C28 582.7 25 591.3 23.5 595.7L22 600L0 600L0 595.7C0 591.3 0 582.7 0 574C0 565.3 0 556.7 0 548C0 539.3 0 530.7 0 522C0 513.3 0 504.7 0 496C0 487.3 0 478.7 0 469.8C0 461 0 452 0 443.2C0 434.3 0 425.7 0 417C0 408.3 0 399.7 0 391C0 382.3 0 373.7 0 365C0 356.3 0 347.7 0 339C0 330.3 0 321.7 0 313C0 304.3 0 295.7 0 287C0 278.3 0 269.7 0 261C0 252.3 0 243.7 0 235C0 226.3 0 217.7 0 209C0 200.3 0 191.7 0 183C0 174.3 0 165.7 0 156.8C0 148 0 139 0 130.2C0 121.3 0 112.7 0 104C0 95.3 0 86.7 0 78C0 69.3 0 60.7 0 52C0 43.3 0 34.7 0 26C0 17.3 0 8.7 0 4.3L0 0Z" fill="#c59f87"></path><path d="M24 0L21.8 4.3C19.7 8.7 15.3 17.3 16 26C16.7 34.7 22.3 43.3 23.7 52C25 60.7 22 69.3 18.7 78C15.3 86.7 11.7 95.3 10.8 104C10 112.7 12 121.3 12.3 130.2C12.7 139 11.3 148 10.3 156.8C9.3 165.7 8.7 174.3 8.7 183C8.7 191.7 9.3 200.3 10 209C10.7 217.7 11.3 226.3 13.7 235C16 243.7 20 252.3 21.5 261C23 269.7 22 278.3 20.7 287C19.3 295.7 17.7 304.3 15.8 313C14 321.7 12 330.3 13.8 339C15.7 347.7 21.3 356.3 23.3 365C25.3 373.7 23.7 382.3 21.5 391C19.3 399.7 16.7 408.3 16.2 417C15.7 425.7 17.3 434.3 16.8 443.2C16.3 452 13.7 461 13.5 469.8C13.3 478.7 15.7 487.3 16 496C16.3 504.7 14.7 513.3 13 522C11.3 530.7 9.7 539.3 11 548C12.3 556.7 16.7 565.3 16.7 574C16.7 582.7 12.3 591.3 10.2 595.7L8 600L0 600L0 595.7C0 591.3 0 582.7 0 574C0 565.3 0 556.7 0 548C0 539.3 0 530.7 0 522C0 513.3 0 504.7 0 496C0 487.3 0 478.7 0 469.8C0 461 0 452 0 443.2C0 434.3 0 425.7 0 417C0 408.3 0 399.7 0 391C0 382.3 0 373.7 0 365C0 356.3 0 347.7 0 339C0 330.3 0 321.7 0 313C0 304.3 0 295.7 0 287C0 278.3 0 269.7 0 261C0 252.3 0 243.7 0 235C0 226.3 0 217.7 0 209C0 200.3 0 191.7 0 183C0 174.3 0 165.7 0 156.8C0 148 0 139 0 130.2C0 121.3 0 112.7 0 104C0 95.3 0 86.7 0 78C0 69.3 0 60.7 0 52C0 43.3 0 34.7 0 26C0 17.3 0 8.7 0 4.3L0 0Z" fill="#e2bd9a"></path><path d="M7 0L7.7 4.3C8.3 8.7 9.7 17.3 10.7 26C11.7 34.7 12.3 43.3 12.8 52C13.3 60.7 13.7 69.3 12.8 78C12 86.7 10 95.3 9.8 104C9.7 112.7 11.3 121.3 11.7 130.2C12 139 11 148 10.2 156.8C9.3 165.7 8.7 174.3 8 183C7.3 191.7 6.7 200.3 8.2 209C9.7 217.7 13.3 226.3 14.7 235C16 243.7 15 252.3 14.3 261C13.7 269.7 13.3 278.3 12.8 287C12.3 295.7 11.7 304.3 10.5 313C9.3 321.7 7.7 330.3 8 339C8.3 347.7 10.7 356.3 10 365C9.3 373.7 5.7 382.3 6.2 391C6.7 399.7 11.3 408.3 14 417C16.7 425.7 17.3 434.3 16.3 443.2C15.3 452 12.7 461 9.7 469.8C6.7 478.7 3.3 487.3 4.5 496C5.7 504.7 11.3 513.3 12.7 522C14 530.7 11 539.3 8.2 548C5.3 556.7 2.7 565.3 4.3 574C6 582.7 12 591.3 15 595.7L18 600L0 600L0 595.7C0 591.3 0 582.7 0 574C0 565.3 0 556.7 0 548C0 539.3 0 530.7 0 522C0 513.3 0 504.7 0 496C0 487.3 0 478.7 0 469.8C0 461 0 452 0 443.2C0 434.3 0 425.7 0 417C0 408.3 0 399.7 0 391C0 382.3 0 373.7 0 365C0 356.3 0 347.7 0 339C0 330.3 0 321.7 0 313C0 304.3 0 295.7 0 287C0 278.3 0 269.7 0 261C0 252.3 0 243.7 0 235C0 226.3 0 217.7 0 209C0 200.3 0 191.7 0 183C0 174.3 0 165.7 0 156.8C0 148 0 139 0 130.2C0 121.3 0 112.7 0 104C0 95.3 0 86.7 0 78C0 69.3 0 60.7 0 52C0 43.3 0 34.7 0 26C0 17.3 0 8.7 0 4.3L0 0Z" fill="#fddeae"></path></svg>