<svg id="visual" viewBox="0 0 540 960" width="540" height="960" xmlns="http://www.w3.org/2000/svg" xmlns:xlink="http://www.w3.org/1999/xlink" version="1.1"><path d="M0 884L23 884L23 956L47 956L47 926L70 926L70 850L94 850L94 863L117 863L117 940L141 940L141 889L164 889L164 812L188 812L188 845L211 845L211 947L235 947L235 862L258 862L258 848L282 848L282 846L305 846L305 892L329 892L329 952L352 952L352 958L376 958L376 871L399 871L399 903L423 903L423 865L446 865L446 929L470 929L470 850L493 850L493 871L517 871L517 815L540 815L540 915L540 0L540 0L517 0L517 0L493 0L493 0L470 0L470 0L446 0L446 0L423 0L423 0L399 0L399 0L376 0L376 0L352 0L352 0L329 0L329 0L305 0L305 0L282 0L282 0L258 0L258 0L235 0L235 0L211 0L211 0L188 0L188 0L164 0L164 0L141 0L141 0L117 0L117 0L94 0L94 0L70 0L70 0L47 0L47 0L23 0L23 0L0 0Z" fill="#560090"></path><path d="M0 865L23 865L23 825L47 825L47 791L70 791L70 830L94 830L94 880L117 880L117 763L141 763L141 828L164 828L164 793L188 793L188 874L211 874L211 849L235 849L235 816L258 816L258 745L282 745L282 871L305 871L305 856L329 856L329 766L352 766L352 782L376 782L376 746L399 746L399 772L423 772L423 829L446 829L446 796L470 796L470 864L493 864L493 810L517 810L517 770L540 770L540 811L540 0L540 0L517 0L517 0L493 0L493 0L470 0L470 0L446 0L446 0L423 0L423 0L399 0L399 0L376 0L376 0L352 0L352 0L329 0L329 0L305 0L305 0L282 0L282 0L258 0L258 0L235 0L235 0L211 0L211 0L188 0L188 0L164 0L164 0L141 0L141 0L117 0L117 0L94 0L94 0L70 0L70 0L47 0L47 0L23 0L23 0L0 0Z" fill="#6500a8"></path><path d="M0 751L23 751L23 720L47 720L47 700L70 700L70 678L94 678L94 668L117 668L117 753L141 753L141 775L164 775L164 676L188 676L188 771L211 771L211 729L235 729L235 718L258 718L258 686L282 686L282 679L305 679L305 709L329 709L329 757L352 757L352 788L376 788L376 664L399 664L399 770L423 770L423 765L446 765L446 799L470 799L470 757L493 757L493 742L517 742L517 724L540 724L540 721L540 0L540 0L517 0L517 0L493 0L493 0L470 0L470 0L446 0L446 0L423 0L423 0L399 0L399 0L376 0L376 0L352 0L352 0L329 0L329 0L305 0L305 0L282 0L282 0L258 0L258 0L235 0L235 0L211 0L211 0L188 0L188 0L164 0L164 0L141 0L141 0L117 0L117 0L94 0L94 0L70 0L70 0L47 0L47 0L23 0L23 0L0 0Z" fill="#7400c1"></path><path d="M0 703L23 703L23 715L47 715L47 706L70 706L70 727L94 727L94 617L117 617L117 629L141 629L141 604L164 604L164 615L188 615L188 715L211 715L211 728L235 728L235 718L258 718L258 606L282 606L282 605L305 605L305 629L329 629L329 671L352 671L352 691L376 691L376 690L399 690L399 635L423 635L423 652L446 652L446 704L470 704L470 712L493 712L493 737L517 737L517 704L540 704L540 632L540 0L540 0L517 0L517 0L493 0L493 0L470 0L470 0L446 0L446 0L423 0L423 0L399 0L399 0L376 0L376 0L352 0L352 0L329 0L329 0L305 0L305 0L282 0L282 0L258 0L258 0L235 0L235 0L211 0L211 0L188 0L188 0L164 0L164 0L141 0L141 0L117 0L117 0L94 0L94 0L70 0L70 0L47 0L47 0L23 0L23 0L0 0Z" fill="#8300da"></path><path d="M0 523L23 523L23 583L47 583L47 544L70 544L70 558L94 558L94 663L117 663L117 622L141 622L141 520L164 520L164 657L188 657L188 537L211 537L211 657L235 657L235 647L258 647L258 593L282 593L282 535L305 535L305 642L329 642L329 544L352 544L352 517L376 517L376 535L399 535L399 608L423 608L423 528L446 528L446 542L470 542L470 526L493 526L493 639L517 639L517 561L540 561L540 616L540 0L540 0L517 0L517 0L493 0L493 0L470 0L470 0L446 0L446 0L423 0L423 0L399 0L399 0L376 0L376 0L352 0L352 0L329 0L329 0L305 0L305 0L282 0L282 0L258 0L258 0L235 0L235 0L211 0L211 0L188 0L188 0L164 0L164 0L141 0L141 0L117 0L117 0L94 0L94 0L70 0L70 0L47 0L47 0L23 0L23 0L0 0Z" fill="#9300f4"></path><path d="M0 519L23 519L23 506L47 506L47 562L70 562L70 473L94 473L94 494L117 494L117 480L141 480L141 566L164 566L164 492L188 492L188 539L211 539L211 502L235 502L235 454L258 454L258 469L282 469L282 560L305 560L305 453L329 453L329 477L352 477L352 455L376 455L376 529L399 529L399 578L423 578L423 538L446 538L446 511L470 511L470 530L493 530L493 543L517 543L517 537L540 537L540 470L540 0L540 0L517 0L517 0L493 0L493 0L470 0L470 0L446 0L446 0L423 0L423 0L399 0L399 0L376 0L376 0L352 0L352 0L329 0L329 0L305 0L305 0L282 0L282 0L258 0L258 0L235 0L235 0L211 0L211 0L188 0L188 0L164 0L164 0L141 0L141 0L117 0L117 0L94 0L94 0L70 0L70 0L47 0L47 0L23 0L23 0L0 0Z" fill="#9900ff"></path><path d="M0 441L23 441L23 382L47 382L47 425L70 425L70 455L94 455L94 514L117 514L117 392L141 392L141 392L164 392L164 421L188 421L188 489L211 489L211 415L235 415L235 453L258 453L258 511L282 511L282 492L305 492L305 507L329 507L329 386L352 386L352 416L376 416L376 429L399 429L399 494L423 494L423 378L446 378L446 404L470 404L470 499L493 499L493 478L517 478L517 417L540 417L540 428L540 0L540 0L517 0L517 0L493 0L493 0L470 0L470 0L446 0L446 0L423 0L423 0L399 0L399 0L376 0L376 0L352 0L352 0L329 0L329 0L305 0L305 0L282 0L282 0L258 0L258 0L235 0L235 0L211 0L211 0L188 0L188 0L164 0L164 0L141 0L141 0L117 0L117 0L94 0L94 0L70 0L70 0L47 0L47 0L23 0L23 0L0 0Z" fill="#9900ff"></path><path d="M0 330L23 330L23 412L47 412L47 413L70 413L70 374L94 374L94 401L117 401L117 371L141 371L141 304L164 304L164 416L188 416L188 325L211 325L211 306L235 306L235 297L258 297L258 305L282 305L282 359L305 359L305 343L329 343L329 314L352 314L352 417L376 417L376 431L399 431L399 295L423 295L423 334L446 334L446 313L470 313L470 386L493 386L493 431L517 431L517 389L540 389L540 309L540 0L540 0L517 0L517 0L493 0L493 0L470 0L470 0L446 0L446 0L423 0L423 0L399 0L399 0L376 0L376 0L352 0L352 0L329 0L329 0L305 0L305 0L282 0L282 0L258 0L258 0L235 0L235 0L211 0L211 0L188 0L188 0L164 0L164 0L141 0L141 0L117 0L117 0L94 0L94 0L70 0L70 0L47 0L47 0L23 0L23 0L0 0Z" fill="#9300f4"></path><path d="M0 274L23 274L23 233L47 233L47 321L70 321L70 223L94 223L94 221L117 221L117 331L141 331L141 253L164 253L164 362L188 362L188 336L211 336L211 306L235 306L235 338L258 338L258 271L282 271L282 285L305 285L305 233L329 233L329 261L352 261L352 260L376 260L376 314L399 314L399 303L423 303L423 348L446 348L446 235L470 235L470 366L493 366L493 361L517 361L517 276L540 276L540 257L540 0L540 0L517 0L517 0L493 0L493 0L470 0L470 0L446 0L446 0L423 0L423 0L399 0L399 0L376 0L376 0L352 0L352 0L329 0L329 0L305 0L305 0L282 0L282 0L258 0L258 0L235 0L235 0L211 0L211 0L188 0L188 0L164 0L164 0L141 0L141 0L117 0L117 0L94 0L94 0L70 0L70 0L47 0L47 0L23 0L23 0L0 0Z" fill="#8300da"></path><path d="M0 153L23 153L23 223L47 223L47 200L70 200L70 246L94 246L94 242L117 242L117 208L141 208L141 250L164 250L164 238L188 238L188 216L211 216L211 200L235 200L235 293L258 293L258 148L282 148L282 180L305 180L305 267L329 267L329 246L352 246L352 174L376 174L376 247L399 247L399 153L423 153L423 234L446 234L446 180L470 180L470 219L493 219L493 238L517 238L517 152L540 152L540 221L540 0L540 0L517 0L517 0L493 0L493 0L470 0L470 0L446 0L446 0L423 0L423 0L399 0L399 0L376 0L376 0L352 0L352 0L329 0L329 0L305 0L305 0L282 0L282 0L258 0L258 0L235 0L235 0L211 0L211 0L188 0L188 0L164 0L164 0L141 0L141 0L117 0L117 0L94 0L94 0L70 0L70 0L47 0L47 0L23 0L23 0L0 0Z" fill="#7400c1"></path><path d="M0 191L23 191L23 192L47 192L47 114L70 114L70 83L94 83L94 151L117 151L117 126L141 126L141 135L164 135L164 147L188 147L188 159L211 159L211 150L235 150L235 194L258 194L258 97L282 97L282 208L305 208L305 185L329 185L329 93L352 93L352 164L376 164L376 98L399 98L399 181L423 181L423 105L446 105L446 186L470 186L470 215L493 215L493 93L517 93L517 177L540 177L540 79L540 0L540 0L517 0L517 0L493 0L493 0L470 0L470 0L446 0L446 0L423 0L423 0L399 0L399 0L376 0L376 0L352 0L352 0L329 0L329 0L305 0L305 0L282 0L282 0L258 0L258 0L235 0L235 0L211 0L211 0L188 0L188 0L164 0L164 0L141 0L141 0L117 0L117 0L94 0L94 0L70 0L70 0L47 0L47 0L23 0L23 0L0 0Z" fill="#6500a8"></path><path d="M0 138L23 138L23 4L47 4L47 101L70 101L70 46L94 46L94 20L117 20L117 65L141 65L141 103L164 103L164 123L188 123L188 0L211 0L211 93L235 93L235 145L258 145L258 21L282 21L282 17L305 17L305 13L329 13L329 18L352 18L352 90L376 90L376 139L399 139L399 89L423 89L423 56L446 56L446 0L470 0L470 25L493 25L493 59L517 59L517 27L540 27L540 62L540 0L540 0L517 0L517 0L493 0L493 0L470 0L470 0L446 0L446 0L423 0L423 0L399 0L399 0L376 0L376 0L352 0L352 0L329 0L329 0L305 0L305 0L282 0L282 0L258 0L258 0L235 0L235 0L211 0L211 0L188 0L188 0L164 0L164 0L141 0L141 0L117 0L117 0L94 0L94 0L70 0L70 0L47 0L47 0L23 0L23 0L0 0Z" fill="#560090"></path></svg>